<svg xmlns="http://www.w3.org/2000/svg" version="1.1" xmlns:xlink="http://www.w3.org/1999/xlink" xmlns:svgjs="http://svgjs.dev/svgjs" width="1500" height="1500" viewBox="0 0 1500 1500"><rect width="1500" height="1500" fill="#ffffff"></rect><g transform="matrix(0.6666666666666666,0,0,0.6666666666666666,249.39393939393938,435.99032258064517)"><svg viewBox="0 0 396 248" data-background-color="#ffffff" preserveAspectRatio="xMidYMid meet" height="939" width="1500" xmlns="http://www.w3.org/2000/svg" xmlns:xlink="http://www.w3.org/1999/xlink"><g id="tight-bounds" transform="matrix(1,0,0,1,0.2400000000000091,0.4000000000000057)"><svg viewBox="0 0 395.52 247.2" height="247.2" width="395.52"><g><svg></svg></g><g><svg viewBox="0 0 395.52 247.2" height="247.2" width="395.52"><mask id="d2c1bbc2-37a5-41ba-8e9e-41b776f80257"><rect width="640" height="400" fill="white"></rect><g transform="matrix(1,0,0,1,88.65103448275859,91.53106276663445)"><svg viewBox="0 0 218.2179310344828 64.13787446673109" height="64.13787446673109" width="218.2179310344828"><g><svg viewBox="0 0 218.2179310344828 64.13787446673109" height="64.13787446673109" width="218.2179310344828"><g><svg viewBox="0 0 218.2179310344828 64.13787446673109" height="64.13787446673109" width="218.2179310344828"><g><svg viewBox="0 0 218.2179310344828 64.13787446673109" height="64.13787446673109" width="218.2179310344828"><g id="SvgjsG3059"><svg viewBox="0 0 218.2179310344828 64.13787446673109" height="64.13787446673109" width="218.2179310344828" id="SvgjsSvg3058"><g><svg viewBox="0 0 218.2179310344828 64.13787446673109" height="64.13787446673109" width="218.2179310344828"><g transform="matrix(1,0,0,1,0,0)"><svg width="218.2179310344828" viewBox="-1.9500000000000002 -39.5 147.29 44" height="64.13787446673109" data-palette-color="#ff0000"><path d="M2.05 0L2.05-35 7.55-35 7.55-20.25 14.55-35 20.05-35 13.5-22.15 20.15 0 14.4 0 9.75-15.6 7.55-11.15 7.55 0 2.05 0ZM21.3 0L27-35 34.45-35 40.15 0 34.65 0 33.65-6.95 33.65-6.85 27.4-6.85 26.4 0 21.3 0ZM28.05-11.6L33-11.6 30.55-28.9 30.45-28.9 28.05-11.6ZM49.8 0.5Q45.8 0.5 43.75-1.78 41.7-4.05 41.7-8.3L41.7-8.3 41.7-10.3 46.9-10.3 46.9-7.9Q46.9-4.5 49.75-4.5L49.75-4.5Q51.15-4.5 51.87-5.33 52.6-6.15 52.6-8L52.6-8Q52.6-10.2 51.6-11.88 50.6-13.55 47.9-15.9L47.9-15.9Q44.5-18.9 43.15-21.33 41.8-23.75 41.8-26.8L41.8-26.8Q41.8-30.95 43.9-33.23 46-35.5 50-35.5L50-35.5Q53.95-35.5 55.97-33.23 58-30.95 58-26.7L58-26.7 58-25.25 52.8-25.25 52.8-27.05Q52.8-28.85 52.1-29.68 51.4-30.5 50.05-30.5L50.05-30.5Q47.3-30.5 47.3-27.15L47.3-27.15Q47.3-25.25 48.32-23.6 49.35-21.95 52.05-19.6L52.05-19.6Q55.5-16.6 56.8-14.15 58.1-11.7 58.1-8.4L58.1-8.4Q58.1-4.1 55.97-1.8 53.85 0.5 49.8 0.5L49.8 0.5ZM61.24 0L61.24-35 66.74-35 66.74-20.75 72.64-20.75 72.64-35 78.14-35 78.14 0 72.64 0 72.64-15.75 66.74-15.75 66.74 0 61.24 0ZM82.24 0L82.24-35 87.74-35 87.74-20.25 94.74-35 100.24-35 93.69-22.15 100.34 0 94.59 0 89.94-15.6 87.74-11.15 87.74 0 82.24 0ZM102.94 0L102.94-35 108.44-35 108.44-20.75 114.34-20.75 114.34-35 119.84-35 119.84 0 114.34 0 114.34-15.75 108.44-15.75 108.44 0 102.94 0ZM122.49 0L128.19-35 135.64-35 141.34 0 135.84 0 134.84-6.95 134.84-6.85 128.59-6.85 127.59 0 122.49 0ZM129.24-11.6L134.19-11.6 131.74-28.9 131.64-28.9 129.24-11.6Z" opacity="1" transform="matrix(1,0,0,1,0,0)" fill="black" class="wordmark-text-0" id="SvgjsPath3057" stroke-width="7" stroke="black" stroke-linejoin="round"></path></svg></g></svg></g></svg></g></svg></g><g></g></svg></g></svg></g></svg></g></mask><g transform="matrix(1,0,0,1,88.65103448275859,91.53106276663445)"><svg viewBox="0 0 218.2179310344828 64.13787446673109" height="64.13787446673109" width="218.2179310344828"><g><svg viewBox="0 0 218.2179310344828 64.13787446673109" height="64.13787446673109" width="218.2179310344828"><g><svg viewBox="0 0 218.2179310344828 64.13787446673109" height="64.13787446673109" width="218.2179310344828"><g><svg viewBox="0 0 218.2179310344828 64.13787446673109" height="64.13787446673109" width="218.2179310344828"><g id="textblocktransform"><svg viewBox="0 0 218.2179310344828 64.13787446673109" height="64.13787446673109" width="218.2179310344828" id="textblock"><g><svg viewBox="0 0 218.2179310344828 64.13787446673109" height="64.13787446673109" width="218.2179310344828"><g transform="matrix(1,0,0,1,0,0)"><svg width="218.2179310344828" viewBox="-1.9500000000000002 -39.5 147.29 44" height="64.13787446673109" data-palette-color="#ff0000"><path d="M2.05 0L2.05-35 7.55-35 7.55-20.25 14.55-35 20.05-35 13.5-22.15 20.15 0 14.4 0 9.75-15.6 7.55-11.15 7.55 0 2.05 0ZM21.3 0L27-35 34.45-35 40.15 0 34.65 0 33.65-6.95 33.65-6.85 27.4-6.85 26.4 0 21.3 0ZM28.05-11.6L33-11.6 30.55-28.9 30.45-28.9 28.05-11.6ZM49.8 0.5Q45.8 0.5 43.75-1.78 41.7-4.05 41.7-8.3L41.7-8.3 41.7-10.3 46.9-10.3 46.9-7.9Q46.9-4.5 49.75-4.5L49.75-4.5Q51.15-4.5 51.87-5.33 52.6-6.15 52.6-8L52.6-8Q52.6-10.2 51.6-11.88 50.6-13.55 47.9-15.9L47.9-15.9Q44.5-18.9 43.15-21.33 41.8-23.75 41.8-26.8L41.8-26.8Q41.8-30.95 43.9-33.23 46-35.5 50-35.5L50-35.5Q53.95-35.5 55.97-33.23 58-30.95 58-26.7L58-26.7 58-25.25 52.8-25.25 52.8-27.05Q52.8-28.85 52.1-29.68 51.4-30.5 50.05-30.5L50.05-30.5Q47.3-30.5 47.3-27.15L47.3-27.15Q47.3-25.25 48.32-23.6 49.35-21.95 52.05-19.6L52.05-19.6Q55.5-16.6 56.8-14.15 58.1-11.7 58.1-8.4L58.1-8.4Q58.1-4.1 55.97-1.8 53.85 0.5 49.8 0.5L49.8 0.5ZM61.24 0L61.24-35 66.74-35 66.74-20.75 72.64-20.75 72.64-35 78.14-35 78.14 0 72.64 0 72.64-15.75 66.74-15.75 66.74 0 61.24 0ZM82.24 0L82.24-35 87.74-35 87.74-20.25 94.74-35 100.24-35 93.69-22.15 100.34 0 94.59 0 89.94-15.6 87.74-11.15 87.74 0 82.24 0ZM102.94 0L102.94-35 108.44-35 108.44-20.75 114.34-20.75 114.34-35 119.84-35 119.84 0 114.34 0 114.34-15.75 108.44-15.75 108.44 0 102.94 0ZM122.49 0L128.19-35 135.64-35 141.34 0 135.84 0 134.84-6.95 134.84-6.85 128.59-6.85 127.59 0 122.49 0ZM129.24-11.6L134.19-11.6 131.74-28.9 131.64-28.9 129.24-11.6Z" opacity="1" transform="matrix(1,0,0,1,0,0)" fill="#000000" class="wordmark-text-0" data-fill-palette-color="primary" id="text-0"></path></svg></g></svg></g></svg></g></svg></g><g></g></svg></g></svg></g></svg></g><g mask="url(#d2c1bbc2-37a5-41ba-8e9e-41b776f80257)"><g transform="matrix(2.9364890120618123, 0, 0, 2.9364890120618123, 51.30114227891107, 1)"><svg xmlns="http://www.w3.org/2000/svg" xmlns:xlink="http://www.w3.org/1999/xlink" version="1.1" x="0" y="0" viewBox="0 5.623921333325057 99.751 83.50107866667494" enable-background="new 0 0 100 100" xml:space="preserve" height="83.50107866667494" width="99.751" class="icon-none" data-fill-palette-color="accent" id="none"><path fill="#000000" d="M69.101 28.048C69.206 27.069 69.145 26.396 69.224 25.965 72.977 26.293 76.294 23.509 76.621 19.76 76.947 16.007 74.163 12.689 70.411 12.361 67.039 12.066 63.724 14.56 63.459 17.596A1.424 1.424 0 1 0 66.298 17.844C66.424 16.405 68.409 15.047 70.163 15.2A3.98 3.98 0 0 1 73.779 19.51 3.98 3.98 0 0 1 69.47 23.124C67.278 22.932 66.739 25.331 66.274 27.769L66.278 27.767z" data-fill-palette-color="accent"></path><path fill="#000000" d="M33.862 27.959C33.659 26.888 33.366 26.211 33.305 25.749 36.978 24.911 39.282 21.245 38.444 17.575 37.604 13.903 33.937 11.598 30.265 12.436 26.964 13.189 24.574 16.579 25.252 19.55A1.424 1.424 0 1 0 28.031 18.916C27.71 17.508 29.183 15.607 30.9 15.215A3.98 3.98 0 0 1 35.663 18.209 3.98 3.98 0 0 1 32.669 22.97C30.636 23.434 30.73 25.658 31.005 27.986L33.52 27.768z" data-fill-palette-color="accent"></path><polygon fill="#000000" points="86.621,37.945 81.937,54.463 70.566,50.045 70.566,85.893 57.123,85.893 76.553,89.125   82.162,55.413 92.329,61.445 99.751,45.731 " data-fill-palette-color="accent"></polygon><polygon fill="#000000" points="28.585,50.047 17.216,54.464 12.59,38.157 0,45.314 7.135,61.162 17.409,55.316 22.403,89.125   44.27,85.894 28.585,85.894 " data-fill-palette-color="accent"></polygon><path fill="#000000" d="M69.58 85.024V48.717L81.287 53.265 86.324 35.502 69.582 29.002 66.551 28.888 64.098 30.267 55.015 24.756C53.929 24.102 52.566 23.693 51.129 23.52 51.21 21.772 50.878 20.736 50.888 20.11 54.879 19.799 57.869 16.304 57.558 12.317 57.245 8.327 53.749 5.336 49.76 5.646 46.174 5.925 43.136 9.117 43.387 12.344A1.513 1.513 0 1 0 46.405 12.109C46.286 10.579 48.13 8.81 49.995 8.665A4.23 4.23 0 0 1 54.536 12.551 4.23 4.23 0 0 1 50.651 17.09C48.025 17.294 48.171 20.579 48.088 23.512 46.637 23.681 45.255 24.094 44.159 24.758L35.389 30.079 33.27 28.888 29.592 29.002 12.846 35.503 17.884 53.266 29.59 48.718V85.026zM45.726 27.349C47.703 26.158 51.472 26.162 53.445 27.348L61.066 31.972 49.907 38.245 38.416 31.785z" data-fill-palette-color="accent"></path></svg></g></g></svg></g><defs></defs></svg><rect width="395.52" height="247.2" fill="none" stroke="none" visibility="hidden"></rect></g></svg></g></svg>